{
    "asset" : {
        "generator" : "Khronos glTF Blender I/O v1.0.5",
        "version" : "2.0"
    },
    "scene" : 0,
    "scenes" : [
        {
            "name" : "Scene",
            "nodes" : [
                0,
                1,
                2,
                3
            ]
        }
    ],
    "nodes" : [
        {
            "name" : "Light",
            "rotation" : [
                0.16907575726509094,
                0.7558803558349609,
                -0.27217137813568115,
                0.570947527885437
            ],
            "translation" : [
                4.076245307922363,
                5.903861999511719,
                -1.0054539442062378
            ]
        },
        {
            "name" : "Camera",
            "rotation" : [
                0.483536034822464,
                0.33687159419059753,
                -0.20870360732078552,
                0.7804827094078064
            ],
            "translation" : [
                7.358891487121582,
                4.958309173583984,
                6.925790786743164
            ]
        },
        {
            "mesh" : 0,
            "name" : "guy-base",
            "rotation" : [
                0.7071068286895752,
                0,
                0,
                0.7071067094802856
            ],
            "scale" : [
                0.09999999403953552,
                0.09999999403953552,
                0.09999999403953552
            ]
        },
        {
            "mesh" : 1,
            "name" : "guy-highpolyeyes",
            "rotation" : [
                0.7071068286895752,
                0,
                0,
                0.7071067094802856
            ],
            "scale" : [
                0.09999999403953552,
                0.09999999403953552,
                0.09999999403953552
            ]
        }
    ],
    "materials" : [
        {
            "doubleSided" : true,
            "name" : "DefaultSkin",
            "pbrMetallicRoughness" : {
                "baseColorFactor" : [
                    0.5902999639511108,
                    0.4399999976158142,
                    0.33799999952316284,
                    1
                ],
                "metallicFactor" : 0,
                "roughnessFactor" : 0.5
            }
        },
        {
            "doubleSided" : true,
            "name" : "Eye_brown",
            "pbrMetallicRoughness" : {
                "baseColorTexture" : {
                    "index" : 0,
                    "texCoord" : 0
                },
                "metallicFactor" : 0,
                "roughnessFactor" : 0.5
            }
        }
    ],
    "meshes" : [
        {
            "extras" : {
                "targetNames" : [
                    "nail",
                    "finger",
                    "hand",
                    "arm"
                ]
            },
            "name" : "guy-base",
            "primitives" : [
                {
                    "attributes" : {
                        "POSITION" : 0,
                        "NORMAL" : 1,
                        "TEXCOORD_0" : 2
                    },
                    "indices" : 3,
                    "material" : 0,
                    "targets" : [
                        {
                            "POSITION" : 4,
                            "NORMAL" : 5
                        },
                        {
                            "POSITION" : 6,
                            "NORMAL" : 7
                        },
                        {
                            "POSITION" : 8,
                            "NORMAL" : 9
                        },
                        {
                            "POSITION" : 10,
                            "NORMAL" : 11
                        }
                    ]
                }
            ],
            "weights" : [
                0,
                0,
                0,
                0
            ]
        },
        {
            "name" : "guy-highpolyeyes",
            "primitives" : [
                {
                    "attributes" : {
                        "POSITION" : 12,
                        "NORMAL" : 13,
                        "TEXCOORD_0" : 14
                    },
                    "indices" : 15,
                    "material" : 1
                }
            ]
        }
    ],
    "textures" : [
        {
            "source" : 0
        }
    ],
    "images" : [
        {
            "bufferView" : 16,
            "mimeType" : "image/png",
            "name" : "brown_eye"
        }
    ],
    "accessors" : [
        {
            "bufferView" : 0,
            "componentType" : 5126,
            "count" : 14517,
            "max" : [
                5.258199691772461,
                3.3459999561309814,
                -0.005399999674409628
            ],
            "min" : [
                -5.258199691772461,
                -0.9544000029563904,
                -16.599199295043945
            ],
            "type" : "VEC3"
        },
        {
            "bufferView" : 1,
            "componentType" : 5126,
            "count" : 14517,
            "type" : "VEC3"
        },
        {
            "bufferView" : 2,
            "componentType" : 5126,
            "count" : 14517,
            "type" : "VEC2"
        },
        {
            "bufferView" : 3,
            "componentType" : 5123,
            "count" : 80268,
            "type" : "SCALAR"
        },
        {
            "bufferView" : 4,
            "componentType" : 5126,
            "count" : 14517,
            "max" : [
                0.2312777042388916,
                0.392225980758667,
                0.30901050567626953
            ],
            "min" : [
                -0.18865156173706055,
                0,
                0
            ],
            "type" : "VEC3"
        },
        {
            "bufferView" : 5,
            "componentType" : 5126,
            "count" : 14517,
            "type" : "VEC3"
        },
        {
            "bufferView" : 6,
            "componentType" : 5126,
            "count" : 14517,
            "max" : [
                0.08101654052734375,
                0.4603455066680908,
                0.25061607360839844
            ],
            "min" : [
                -0.17292213439941406,
                0,
                0
            ],
            "type" : "VEC3"
        },
        {
            "bufferView" : 7,
            "componentType" : 5126,
            "count" : 14517,
            "type" : "VEC3"
        },
        {
            "bufferView" : 8,
            "componentType" : 5126,
            "count" : 14517,
            "max" : [
                0.7117528915405273,
                1.4018232822418213,
                1.376215934753418
            ],
            "min" : [
                -0.6865377426147461,
                0,
                0
            ],
            "type" : "VEC3"
        },
        {
            "bufferView" : 9,
            "componentType" : 5126,
            "count" : 14517,
            "type" : "VEC3"
        },
        {
            "bufferView" : 10,
            "componentType" : 5126,
            "count" : 14517,
            "max" : [
                2.9777956008911133,
                3.0554587841033936,
                4.268551349639893
            ],
            "min" : [
                -3.313159942626953,
                -0.5261616706848145,
                0
            ],
            "type" : "VEC3"
        },
        {
            "bufferView" : 11,
            "componentType" : 5126,
            "count" : 14517,
            "type" : "VEC3"
        },
        {
            "bufferView" : 12,
            "componentType" : 5126,
            "count" : 1076,
            "max" : [
                0.44369998574256897,
                1.3453999757766724,
                -15.389899253845215
            ],
            "min" : [
                -0.44369998574256897,
                1.1116999387741089,
                -15.6875
            ],
            "type" : "VEC3"
        },
        {
            "bufferView" : 13,
            "componentType" : 5126,
            "count" : 1076,
            "type" : "VEC3"
        },
        {
            "bufferView" : 14,
            "componentType" : 5126,
            "count" : 1076,
            "type" : "VEC2"
        },
        {
            "bufferView" : 15,
            "componentType" : 5123,
            "count" : 6120,
            "type" : "SCALAR"
        }
    ],
    "bufferViews" : [
        {
            "buffer" : 0,
            "byteLength" : 174204,
            "byteOffset" : 0
        },
        {
            "buffer" : 0,
            "byteLength" : 174204,
            "byteOffset" : 174204
        },
        {
            "buffer" : 0,
            "byteLength" : 116136,
            "byteOffset" : 348408
        },
        {
            "buffer" : 0,
            "byteLength" : 160536,
            "byteOffset" : 464544
        },
        {
            "buffer" : 0,
            "byteLength" : 174204,
            "byteOffset" : 625080
        },
        {
            "buffer" : 0,
            "byteLength" : 174204,
            "byteOffset" : 799284
        },
        {
            "buffer" : 0,
            "byteLength" : 174204,
            "byteOffset" : 973488
        },
        {
            "buffer" : 0,
            "byteLength" : 174204,
            "byteOffset" : 1147692
        },
        {
            "buffer" : 0,
            "byteLength" : 174204,
            "byteOffset" : 1321896
        },
        {
            "buffer" : 0,
            "byteLength" : 174204,
            "byteOffset" : 1496100
        },
        {
            "buffer" : 0,
            "byteLength" : 174204,
            "byteOffset" : 1670304
        },
        {
            "buffer" : 0,
            "byteLength" : 174204,
            "byteOffset" : 1844508
        },
        {
            "buffer" : 0,
            "byteLength" : 12912,
            "byteOffset" : 2018712
        },
        {
            "buffer" : 0,
            "byteLength" : 12912,
            "byteOffset" : 2031624
        },
        {
            "buffer" : 0,
            "byteLength" : 8608,
            "byteOffset" : 2044536
        },
        {
            "buffer" : 0,
            "byteLength" : 12240,
            "byteOffset" : 2053144
        },
        {
            "buffer" : 0,
            "byteLength" : 610817,
            "byteOffset" : 2065384
        }
    ],
    "buffers" : [
        {
            "byteLength" : 2676204,
            "uri" : "data:application/octet-stream;base64,"
        }
    ]
}
