{
    "asset" : {
        "generator" : "Khronos glTF Blender I/O v1.0.5",
        "version" : "2.0"
    },
    "scene" : 0,
    "scenes" : [
        {
            "name" : "Scene",
            "nodes" : [
                0,
                1,
                34
            ]
        }
    ],
    "nodes" : [
        {
            "name" : "Light",
            "rotation" : [
                0.16907575726509094,
                0.7558803558349609,
                -0.27217137813568115,
                0.570947527885437
            ],
            "translation" : [
                4.076245307922363,
                5.903861999511719,
                -1.0054539442062378
            ]
        },
        {
            "name" : "Camera",
            "rotation" : [
                0.483536034822464,
                0.33687159419059753,
                -0.20870360732078552,
                0.7804827094078064
            ],
            "translation" : [
                7.358891487121582,
                4.958309173583984,
                6.925790786743164
            ]
        },
        {
            "name" : "LeftToeBase",
            "rotation" : [
                0,
                -0.010789761319756508,
                0,
                0.9999418258666992
            ],
            "translation" : [
                -0.17258025705814362,
                -0.44943907856941223,
                1.3028255701065063
            ]
        },
        {
            "children" : [
                2
            ],
            "name" : "LeftFoot",
            "rotation" : [
                0,
                0.7591614723205566,
                0,
                0.6509023308753967
            ],
            "translation" : [
                -0.13611915707588196,
                -4.048490524291992,
                -0.14751778542995453
            ]
        },
        {
            "children" : [
                3
            ],
            "name" : "LeftLeg",
            "rotation" : [
                0,
                -0.9061323404312134,
                0,
                0.42299431562423706
            ],
            "scale" : [
                1,
                0.9999999403953552,
                1
            ],
            "translation" : [
                -0.12782081961631775,
                -3.9437661170959473,
                0.3008791506290436
            ]
        },
        {
            "children" : [
                4
            ],
            "name" : "LeftUpLeg",
            "rotation" : [
                0,
                -0.2797229588031769,
                0,
                0.9600808620452881
            ],
            "scale" : [
                0.9999999403953552,
                1,
                0.9999999403953552
            ],
            "translation" : [
                0.3080739378929138,
                -0.1297903060913086,
                0.9507148265838623
            ]
        },
        {
            "children" : [
                5
            ],
            "name" : "LHipJoint",
            "rotation" : [
                0,
                0.6213334202766418,
                0,
                0.7835462689399719
            ],
            "translation" : [
                -0.00018977328727487475,
                -0.0004520416259765625,
                0.00047853589057922363
            ]
        },
        {
            "name" : "LThumb",
            "rotation" : [
                0,
                0.8176648020744324,
                0,
                0.5756946206092834
            ],
            "translation" : [
                0.4239089787006378,
                -0.03546142578125,
                0.13405799865722656
            ]
        },
        {
            "name" : "LeftHandFinger1",
            "rotation" : [
                0,
                0.1542757749557495,
                0,
                0.9880278706550598
            ],
            "translation" : [
                0.4270321726799011,
                0.049508094787597656,
                0.6109616160392761
            ]
        },
        {
            "children" : [
                8
            ],
            "name" : "LeftFingerBase",
            "rotation" : [
                0,
                0.4543749988079071,
                0,
                0.890810489654541
            ],
            "translation" : [
                0.3174877166748047,
                -0.02507495880126953,
                -0.057148277759552
            ]
        },
        {
            "children" : [
                7,
                9
            ],
            "name" : "LeftHand",
            "rotation" : [
                0,
                -0.1580199897289276,
                0,
                0.9874359369277954
            ],
            "translation" : [
                2.379149913787842,
                0.07081317901611328,
                -0.12492972612380981
            ]
        },
        {
            "children" : [
                10
            ],
            "name" : "LeftForeArm",
            "rotation" : [
                0,
                -0.06632991135120392,
                0,
                0.9977978467941284
            ],
            "translation" : [
                2.42112135887146,
                -0.058608055114746094,
                0.03863644599914551
            ]
        },
        {
            "children" : [
                11
            ],
            "name" : "LeftArm",
            "rotation" : [
                0,
                0.024597011506557465,
                0,
                0.9996974468231201
            ],
            "translation" : [
                1.5302865505218506,
                0.10959815979003906,
                -0.021670345216989517
            ]
        },
        {
            "children" : [
                12
            ],
            "name" : "LeftShoulder",
            "rotation" : [
                0,
                -4.55900990345981e-05,
                0,
                1
            ],
            "translation" : [
                0.22723592817783356,
                1.1420202255249023,
                0.3796854615211487
            ]
        },
        {
            "name" : "Head",
            "translation" : [
                0,
                0.5046596527099609,
                0.19635681807994843
            ]
        },
        {
            "children" : [
                14
            ],
            "name" : "Neck1",
            "translation" : [
                0,
                0.5043926239013672,
                0.19587001204490662
            ]
        },
        {
            "children" : [
                15
            ],
            "name" : "Neck",
            "translation" : [
                0,
                1.853835105895996,
                0.21400755643844604
            ]
        },
        {
            "name" : "RThumb",
            "rotation" : [
                0,
                -0.81761634349823,
                0,
                0.5757634043693542
            ],
            "translation" : [
                -0.42375844717025757,
                -0.03597068786621094,
                0.13399866223335266
            ]
        },
        {
            "name" : "RightHandFinger1",
            "rotation" : [
                0,
                -0.1542757749557495,
                0,
                0.9880278706550598
            ],
            "translation" : [
                -0.4270321726799011,
                0.049508094787597656,
                0.6109616160392761
            ]
        },
        {
            "children" : [
                18
            ],
            "name" : "RightFingerBase",
            "rotation" : [
                0,
                -0.4543749988079071,
                0,
                0.890810489654541
            ],
            "translation" : [
                -0.3175063133239746,
                -0.025056838989257812,
                -0.057051241397857666
            ]
        },
        {
            "children" : [
                17,
                19
            ],
            "name" : "RightHand",
            "rotation" : [
                0,
                0.1580199897289276,
                0,
                0.9874359369277954
            ],
            "translation" : [
                -2.3791630268096924,
                0.07079505920410156,
                -0.1250273883342743
            ]
        },
        {
            "children" : [
                20
            ],
            "name" : "RightForeArm",
            "rotation" : [
                0,
                0.06632991135120392,
                0,
                0.9977978467941284
            ],
            "translation" : [
                -2.42112135887146,
                -0.058608055114746094,
                0.03863644599914551
            ]
        },
        {
            "children" : [
                21
            ],
            "name" : "RightArm",
            "rotation" : [
                0,
                -0.024597011506557465,
                0,
                0.9996974468231201
            ],
            "translation" : [
                -1.5302865505218506,
                0.10959815979003906,
                -0.021670345216989517
            ]
        },
        {
            "children" : [
                22
            ],
            "name" : "RightShoulder",
            "rotation" : [
                0,
                4.55900990345981e-05,
                0,
                1
            ],
            "translation" : [
                -0.22723592817783356,
                1.1420202255249023,
                0.3796854615211487
            ]
        },
        {
            "children" : [
                13,
                16,
                23
            ],
            "name" : "Spine1",
            "translation" : [
                0,
                1.4644489288330078,
                -0.08773040771484375
            ]
        },
        {
            "children" : [
                24
            ],
            "name" : "Spine",
            "translation" : [
                0,
                1.3264503479003906,
                0.1580972671508789
            ]
        },
        {
            "children" : [
                25
            ],
            "name" : "LowerBack",
            "translation" : [
                0,
                0.7151937484741211,
                -0.38580459356307983
            ]
        },
        {
            "name" : "RightToeBase",
            "rotation" : [
                0,
                0.010789761319756508,
                0,
                0.9999418258666992
            ],
            "translation" : [
                0.17258025705814362,
                -0.44943907856941223,
                1.3028255701065063
            ]
        },
        {
            "children" : [
                27
            ],
            "name" : "RightFoot",
            "rotation" : [
                0,
                -0.7591614723205566,
                0,
                0.6509023308753967
            ],
            "translation" : [
                0.13611915707588196,
                -4.048490524291992,
                -0.14751778542995453
            ]
        },
        {
            "children" : [
                28
            ],
            "name" : "RightLeg",
            "rotation" : [
                0,
                0.9061323404312134,
                0,
                0.42299431562423706
            ],
            "scale" : [
                1,
                0.9999999403953552,
                1
            ],
            "translation" : [
                0.12782081961631775,
                -3.9437661170959473,
                0.3008791506290436
            ]
        },
        {
            "children" : [
                29
            ],
            "name" : "RightUpLeg",
            "rotation" : [
                0,
                0.2797229588031769,
                0,
                0.9600808620452881
            ],
            "scale" : [
                0.9999999403953552,
                1,
                0.9999999403953552
            ],
            "translation" : [
                -0.3080739378929138,
                -0.1297903060913086,
                0.9507148265838623
            ]
        },
        {
            "children" : [
                30
            ],
            "name" : "RHipJoint",
            "rotation" : [
                0,
                -0.6213334202766418,
                0,
                0.7835462689399719
            ],
            "translation" : [
                0.00018977328727487475,
                -0.0004520416259765625,
                0.00047853589057922363
            ]
        },
        {
            "children" : [
                6,
                26,
                31
            ],
            "name" : "Hips",
            "rotation" : [
                -0.7071068286895752,
                0,
                0,
                0.7071068286895752
            ],
            "translation" : [
                0,
                -0.4826810359954834,
                -8.8099365234375
            ]
        },
        {
            "mesh" : 0,
            "name" : "humonculus-base",
            "skin" : 0
        },
        {
            "children" : [
                33,
                32
            ],
            "name" : "humonculus",
            "rotation" : [
                0.7071068286895752,
                0,
                0,
                0.7071067094802856
            ],
            "scale" : [
                0.09999999403953552,
                0.09999999403953552,
                0.09999999403953552
            ]
        }
    ],
    "materials" : [
        {
            "doubleSided" : true,
            "name" : "DefaultSkin",
            "pbrMetallicRoughness" : {
                "baseColorFactor" : [
                    0.5902999639511108,
                    0.4399999976158142,
                    0.33799999952316284,
                    1
                ],
                "metallicFactor" : 0,
                "roughnessFactor" : 0.5
            }
        }
    ],
    "meshes" : [
        {
            "extras" : {
                "targetNames" : [
                    "Forearm",
                    "Bicep",
                    "Tricep"
                ]
            },
            "name" : "humonculus-base",
            "primitives" : [
                {
                    "attributes" : {
                        "POSITION" : 0,
                        "NORMAL" : 1,
                        "TEXCOORD_0" : 2,
                        "JOINTS_0" : 3,
                        "WEIGHTS_0" : 4
                    },
                    "indices" : 5,
                    "material" : 0,
                    "targets" : [
                        {
                            "POSITION" : 6,
                            "NORMAL" : 7
                        },
                        {
                            "POSITION" : 8,
                            "NORMAL" : 9
                        },
                        {
                            "POSITION" : 10,
                            "NORMAL" : 11
                        }
                    ]
                }
            ],
            "weights" : [
                0,
                0,
                0
            ]
        }
    ],
    "skins" : [
        {
            "inverseBindMatrices" : 12,
            "joints" : [
                32,
                6,
                5,
                4,
                3,
                2,
                26,
                25,
                24,
                13,
                12,
                11,
                10,
                7,
                9,
                8,
                16,
                15,
                14,
                23,
                22,
                21,
                20,
                17,
                19,
                18,
                31,
                30,
                29,
                28,
                27
            ],
            "name" : "humonculus"
        }
    ],
    "accessors" : [
        {
            "bufferView" : 0,
            "componentType" : 5126,
            "count" : 462,
            "max" : [
                -0.2398499846458435,
                1.4536231756210327,
                0.016149548813700676
            ],
            "min" : [
                -0.6545699238777161,
                1.3065298795700073,
                -0.09242977201938629
            ],
            "type" : "VEC3"
        },
        {
            "bufferView" : 1,
            "componentType" : 5126,
            "count" : 462,
            "type" : "VEC3"
        },
        {
            "bufferView" : 2,
            "componentType" : 5126,
            "count" : 462,
            "type" : "VEC2"
        },
        {
            "bufferView" : 3,
            "componentType" : 5123,
            "count" : 462,
            "type" : "VEC4"
        },
        {
            "bufferView" : 4,
            "componentType" : 5126,
            "count" : 462,
            "type" : "VEC4"
        },
        {
            "bufferView" : 5,
            "componentType" : 5123,
            "count" : 2520,
            "type" : "SCALAR"
        },
        {
            "bufferView" : 6,
            "componentType" : 5126,
            "count" : 462,
            "max" : [
                0.00662115216255188,
                0.051726341247558594,
                0.09916789084672928
            ],
            "min" : [
                -0.15041393041610718,
                -0.08309328556060791,
                -0.0800718292593956
            ],
            "type" : "VEC3"
        },
        {
            "bufferView" : 7,
            "componentType" : 5126,
            "count" : 462,
            "type" : "VEC3"
        },
        {
            "bufferView" : 8,
            "componentType" : 5126,
            "count" : 462,
            "max" : [
                0.09673139452934265,
                0.03309190273284912,
                0.061144597828388214
            ],
            "min" : [
                -0.021393388509750366,
                -0.1554112434387207,
                -0.08745875209569931
            ],
            "type" : "VEC3"
        },
        {
            "bufferView" : 9,
            "componentType" : 5126,
            "count" : 462,
            "type" : "VEC3"
        },
        {
            "bufferView" : 10,
            "componentType" : 5126,
            "count" : 462,
            "max" : [
                0.019196748733520508,
                0.08907842636108398,
                0.03180602192878723
            ],
            "min" : [
                -0.01732546091079712,
                -0.041979312896728516,
                -0.04884019121527672
            ],
            "type" : "VEC3"
        },
        {
            "bufferView" : 11,
            "componentType" : 5126,
            "count" : 462,
            "type" : "VEC3"
        },
        {
            "bufferView" : 12,
            "componentType" : 5126,
            "count" : 31,
            "type" : "MAT4"
        }
    ],
    "bufferViews" : [
        {
            "buffer" : 0,
            "byteLength" : 5544,
            "byteOffset" : 0
        },
        {
            "buffer" : 0,
            "byteLength" : 5544,
            "byteOffset" : 5544
        },
        {
            "buffer" : 0,
            "byteLength" : 3696,
            "byteOffset" : 11088
        },
        {
            "buffer" : 0,
            "byteLength" : 3696,
            "byteOffset" : 14784
        },
        {
            "buffer" : 0,
            "byteLength" : 7392,
            "byteOffset" : 18480
        },
        {
            "buffer" : 0,
            "byteLength" : 5040,
            "byteOffset" : 25872
        },
        {
            "buffer" : 0,
            "byteLength" : 5544,
            "byteOffset" : 30912
        },
        {
            "buffer" : 0,
            "byteLength" : 5544,
            "byteOffset" : 36456
        },
        {
            "buffer" : 0,
            "byteLength" : 5544,
            "byteOffset" : 42000
        },
        {
            "buffer" : 0,
            "byteLength" : 5544,
            "byteOffset" : 47544
        },
        {
            "buffer" : 0,
            "byteLength" : 5544,
            "byteOffset" : 53088
        },
        {
            "buffer" : 0,
            "byteLength" : 5544,
            "byteOffset" : 58632
        },
        {
            "buffer" : 0,
            "byteLength" : 1984,
            "byteOffset" : 64176
        }
    ],
    "buffers" : [
        {
            "byteLength" : 66160,
            "uri" : "data:application/octet-stream;base64,"
        }
    ]
}
